<?xml version="1.0" encoding="utf-8"?>
<!-- Generator: Adobe Illustrator 26.3.1, SVG Export Plug-In . SVG Version: 6.00 Build 0)  -->
<svg version="1.1" id="Camada_1" xmlns="http://www.w3.org/2000/svg" xmlns:xlink="http://www.w3.org/1999/xlink" x="0px" y="0px"
	 viewBox="0 0 1306.64 718.37" style="enable-background:new 0 0 1306.64 718.37;" xml:space="preserve">
<style type="text/css">
	.st0{fill:#F6A316;}
</style>
<path class="st0" d="M1297.54,440.6c-39.13-1.12-78.27-2.25-117.41-3.27c-3.21-0.08-5-1.09-6.39-4.16
	c-10.64-23.52-21.44-46.97-32.32-70.38c-1.26-2.72-1.09-4.85,0.14-7.49c10.81-23.26,21.56-46.55,32.11-69.92
	c1.47-3.25,3.22-4.27,6.7-4.36c34.97-0.97,69.94-2.13,104.9-3.27c6.66-0.22,13.32-0.62,21.33-1c-9.24-7.58-17.37-14.17-25.41-20.87
	c-6.06-5.05-12.94-7.99-20.75-9.09c-31.67-4.47-63.36-8.77-94.95-13.77c-8.91-1.41-15.8,0.19-22.28,6.4
	c-16.35,15.67-33.01,31.03-49.53,46.53c-3.87,3.63-7.91,6.99-10.41,11.96c-6.2,12.35-12.69,24.57-19.22,36.75
	c-2.05,3.82-3.58,7.99-7.31,12.36c0.52-2.02,0.7-2.79,0.92-3.56c4.14-14.4,8.28-28.81,12.44-43.2c1.54-5.34,1.57-5.34-4.17-5.35
	c-0.67,0-1.33,0-2,0c-272.65,0-545.3,0-817.95,0c-11.69,0-11.61-0.03-8.28,11.25c3.89,13.2,7.61,26.45,11.4,39.68
	c-1.75-1.34-2.8-2.97-3.69-4.67c-6.13-11.64-12.09-23.38-18.4-34.93c-3.01-5.5-5.08-11.55-9.93-16.03
	c-17.62-16.28-35.29-32.51-52.51-49.2c-7.18-6.96-14.45-9.62-24.66-7.96c-31.72,5.17-63.61,9.38-95.43,13.92
	c-5.37,0.77-10.54,2.32-14.87,5.49c-9.94,7.27-19.36,15.21-28.61,23.35c-0.13,0.12,0.05,0.59,0.1,1.05c1.44,0.11,2.9,0.27,4.37,0.32
	c40.13,1.32,80.25,2.66,120.39,3.86c3.22,0.1,4.99,0.88,6.41,4.03c10.7,23.68,21.61,47.26,32.54,70.83
	c1.08,2.33,1.08,4.25-0.01,6.59c-10.93,23.57-21.8,47.17-32.55,70.83c-1.27,2.79-2.84,3.97-5.95,4.05
	c-36.81,0.96-73.61,2.01-110.41,3.12c-5,0.15-10.09-0.35-15.88,1.31c11.37,9.18,22,17.97,32.87,26.44
	c4.39,3.42,9.77,5.05,15.27,5.81c8.42,1.17,16.86,2.08,25.3,3.1c22.66,2.73,45.39,5,67.94,8.4c9.13,1.37,15.67-1.11,22.04-7.18
	c18.22-17.34,36.76-34.34,55.04-51.61c2.51-2.37,5.03-3.33,8.43-3.31c24.33,0.11,48.66,0.05,73,0.05
	c259.32,0,518.64,0.01,777.95-0.07c4.3,0,7.49,1.11,10.65,4.09c19.01,17.96,38.21,35.72,57.31,53.58c4.3,4.02,9.29,5.7,15.1,4.98
	c29.42-3.64,58.85-7.29,88.27-10.93c7.27-0.9,14.77-1.18,21.16-5.24c12.65-8.03,23.3-18.6,36.31-28.6
	C1302.49,440.97,1300.02,440.67,1297.54,440.6z M148.49,476.86c-0.95,0.65-2.58,0.43-3.89,0.38c-12.48-0.48-24.82-2.12-37.02-4.83
	c-0.9-0.2-1.76-0.62-2.87-1.02c1.15-1.63,2.59-1.19,3.76-1.26c11.13-0.71,22.27-0.51,33.38,0.31c3.18,0.24,5.72-0.26,8.36-2.09
	c5.66-3.93,11.63-7.37,18.26-9.7C162.56,465.61,155.98,471.76,148.49,476.86z M422.51,400.66c-5.16-0.09-10.33-0.09-15.49-0.05
	c-2.63,0.02-3.52-0.98-1.9-3.22c2.01-2.77,2.04-5.85,2.02-9.05c-0.05-14.1-0.02-28.2-0.02-42.29c-0.32-0.04-0.63-0.07-0.95-0.11
	c-2.39,11.67-4.79,23.34-7.19,35.01c-1.11,5.38-2.3,10.74-3.31,16.14c-0.47,2.5-1.48,3.88-4.27,3.53c-1.64-0.2-3.34-0.13-4.99,0.01
	c-2.83,0.24-4.05-0.81-4.61-3.76c-2.81-14.89-5.87-29.73-8.85-44.58c-0.38-1.9-0.8-3.8-2.26-5.59c0,4.56,0,9.13,0,13.69
	c0,9.5,0.04,18.99-0.02,28.49c-0.02,2.87,0.13,5.63,1.77,8.15c1.47,2.26,1.28,3.65-1.94,3.59c-4.83-0.1-9.66-0.07-14.49,0.02
	c-2.6,0.05-3.57-0.79-1.93-3.1c2.06-2.93,2.07-6.18,2.06-9.54c-0.05-19.66-0.05-39.32,0-58.98c0.01-2.72-0.16-5.3-1.76-7.62
	c-1.68-2.44-1.58-3.79,1.97-3.72c7.83,0.15,15.66,0.07,23.49,0.07c1.62,0,3.4,0.07,2.53,2.35c-2.01,5.23-0.04,10.21,0.78,15.22
	c1.71,10.45,3.68,20.85,6.51,31.23c2.42-13.49,4.84-26.98,7.24-40.47c0.11-0.65,0.07-1.33,0.01-1.99c-0.62-6.33-0.62-6.33,5.62-6.33
	c6.66-0.01,13.33,0.03,19.99-0.05c2.91-0.04,3.81,0.95,2.04,3.46c-1.84,2.61-2,5.47-1.99,8.54c0.09,19.66,0.09,39.32,0,58.98
	c-0.01,3.08,0.16,5.93,2,8.54C426.37,399.77,425.37,400.71,422.51,400.66z M474.76,350.29c-0.01,2.08,0.81,3.09,2.96,2.97
	c4.11-0.22,8.34,0.72,12.24-1.47c3.14-1.76,4.22-0.41,3.98,2.78c-0.06,0.83,0.01,1.67-0.01,2.5c-0.08,3.15,0.96,7.11-0.55,9.27
	c-2.09,2.99-5.09-1.05-7.92-1.31c-10.47-0.95-10.71-0.89-10.71,9.29c0,1.5-0.18,3.02,0.04,4.49c0.49,3.32-1.96,8.34,1.39,9.63
	c4.03,1.56,9.16,1.42,13.65-0.52c0.46-0.2,0.88-0.47,1.33-0.69c9.56-4.78,9.56-4.78,9.59,6.21c0.02,7.16,0.02,7.18-7.33,7.19
	c-11.16,0.02-22.32-0.07-33.48,0.05c-3.36,0.04-4.49-0.7-2.31-3.81c1.71-2.43,1.86-5.18,1.82-8.09c-0.14-9.99-0.05-19.99-0.05-29.98
	c0-8.66,0-17.32-0.01-25.98c0-4.29,0.6-8.65-2.34-12.46c-1.4-1.81-0.39-2.66,1.64-2.66c12.99,0.03,25.98,0.1,38.97,0.05
	c2.57-0.01,3.09,1.3,3.07,3.42c-0.04,3.66-0.05,7.33,0.01,10.99c0.05,2.99-1.16,3.53-3.59,2.03c-5.79-3.58-11.89-5.7-18.89-4.94
	c-2.51,0.27-3.58,0.99-3.54,3.54C474.82,338.63,474.8,344.47,474.76,350.29z M578.76,344.81c0.06,1.75-0.92,2.73-2.33,3.49
	c-3.08,1.66-6.14,3.34-9.18,5.07c-2.66,1.52-3.56,0.58-3.53-2.24c0.06-5.16,0.07-10.33-0.04-15.49c-0.1-4.9-1.88-6.33-7.46-6.27
	c-5.75,0.06-7.18,1.23-7.2,6.41c-0.06,15.66-0.06,31.31,0,46.97c0.02,5.05,1.54,6.2,7.38,6.23c5.44,0.02,7.13-1.47,7.29-6.46
	c0.03-0.83,0-1.67,0-2.5c0-12.62,0.02-12.58,11.56-18.02c2.1-0.99,3.5-1.36,3.48,1.67c-0.07,9.16,0.2,18.33-0.34,27.46
	c-0.41,6.92-2.96,9.1-9.86,9.33c-8.15,0.27-16.32,0.23-24.48,0.04c-7.58-0.18-10.37-3.12-10.47-10.91
	c-0.13-10.16-0.03-20.32-0.03-30.48c0-9.99-0.08-19.99,0.02-29.98c0.08-8.32,2.84-11.18,11.1-11.32c8.16-0.14,16.33-0.18,24.47,0.13
	c6.14,0.23,8.21,2.37,9.16,8.41C579.29,332.49,578.57,338.66,578.76,344.81z M658.77,343.11c-0.27,14.83-0.03,29.66-0.1,44.49
	c-0.02,3.56,0.14,6.95,2.27,10.02c1.3,1.88,0.85,3.01-1.69,2.99c-5.5-0.04-11,0.04-16.5,0.03c-1.36,0-3.24-0.19-1.95-2.14
	c3.86-5.82,2.01-12.28,2.36-18.48c0.22-3.82-0.06-7.67,0.06-11.49c0.09-2.63-1.07-3.37-3.57-3.49c-10.63-0.53-10.63-0.6-10.63,9.84
	c0,5.17,0.04,10.33-0.02,15.5c-0.02,2.05,0.16,3.99,1.38,5.71c2.35,3.32,2.03,4.88-2.57,4.59c-4.81-0.3-9.66-0.15-14.49-0.03
	c-2.77,0.07-3.45-0.91-1.86-3.13c2.2-3.05,2.25-6.46,2.24-10.01c-0.06-19.33-0.06-38.66,0.01-57.99c0.01-2.91-0.21-5.65-1.93-8.09
	c-2.27-3.22-0.83-3.83,2.38-3.72c4.83,0.16,9.67,0.16,14.5,0c3.07-0.1,4.3,0.71,2.26,3.53c-2.83,3.91-1.75,8.34-1.86,12.59
	c-0.13,5.33,0.07,10.67-0.07,16c-0.07,2.62,0.92,3.52,3.5,3.47c13.1-0.26,10.44,1.59,10.69-9.79c0.12-5.33-0.01-10.66,0.02-16
	c0.01-1.86-0.11-3.65-1.23-5.25c-2.37-3.37-1.9-4.84,2.62-4.6c5.62,0.29,11.27,0.07,17.9,0.07
	C656.76,326.12,658.92,334.78,658.77,343.11z M744.85,400.01c-0.87,1.25-2.8,0.56-4.27,0.6c-2.16,0.05-4.33,0.01-6.49,0.01
	c-0.83-0.01-1.67,0-2.5-0.02c-2.49-0.04-5.64,0.85-7.33-0.34c-2.63-1.85,0.86-4.18,1.11-6.47c0.76-6.92-0.86-9.03-7.64-9.03
	c-9.31,0.01-11.59,3.25-8.17,12.03c1.06,2.73,1.02,3.96-2.37,3.85c-5.16-0.16-10.32,0-15.48-0.06c-1.34-0.02-3.76,0.29-2.2-2.22
	c5.61-8.99,5.24-19.45,7.28-29.28c3.21-15.47,5.74-31.09,8.34-46.68c0.62-3.69,2.16-5.31,5.89-4.66c0.48,0.09,1-0.02,1.5,0.02
	c5.11,0.35,11.51-2.12,14.98,1.04c3.42,3.12,2.55,9.68,3.49,14.73c3.55,18.97,6.92,37.98,10.35,56.98c0.36,1.98,0.95,3.85,2.06,5.58
	C744.17,397.29,745.84,398.59,744.85,400.01z M823.08,320.64c-2.29,3.26-2.08,6.88-2.07,10.55c0.03,21.49-0.08,42.97,0.1,64.46
	c0.03,3.91-1.02,5.14-5.02,5.06c-10.51-0.23-10.52-0.04-13.46-10.15c-3.26-11.19-6.5-22.38-9.78-33.56
	c-0.64-2.17-1.38-4.32-3.24-6.39c0,2.03,0,4.07,0,6.1c0,10.66,0.03,21.32-0.03,31.98c-0.02,3.04,0.13,5.95,1.91,8.61
	c1.22,1.83,1.58,3.4-1.64,3.35c-5.8-0.1-11.61-0.03-18.43-0.03c5.75-8.27,3.45-16.91,3.61-25.2c0.29-15.48,0.08-30.98,0.08-46.47
	c0-2.16,0.24-4.37-1.12-6.28c-2.73-3.82-2.01-5.3,2.88-4.98c5.14,0.33,10.33,0.23,15.48,0.02c3.28-0.13,4.83,0.64,3.57,4.16
	c-0.64,1.79-0.44,3.58,0.08,5.39c3.09,10.89,6.13,21.79,9.19,32.69c0.18,0.64,0.29,1.3,1.55,1.48c0-11.79,0.01-23.52-0.02-35.25
	c0-0.64-0.26-1.3-0.47-1.93c-2.18-6.5-2.19-6.49,5.04-6.49c3.33,0,6.66,0.05,9.99-0.05C823.77,317.64,824.45,318.7,823.08,320.64z
	 M873.92,400.63c-6.44-0.03-12.88-0.01-20.44-0.01c5.21-6.36,4.02-12.97,4.04-19.36c0.05-15.49,0.03-30.98,0.01-46.46
	c-0.01-5.6,1.03-11.42-4.64-17.06c8.24,0,14.53,0.04,20.83-0.02c2.26-0.02,2.85,1.01,1.58,2.68c-3.01,3.96-2.42,8.49-2.43,12.95
	c-0.01,17.65,0,35.31-0.01,52.96c0,3.99-0.35,7.99,2.35,11.47C876.24,399.13,876.56,400.65,873.92,400.63z M938.6,342.66
	c-0.16-1.65-0.11-3.33-0.01-4.99c0.45-7.78-2.38-9.24-10.94-8c-3.27,0.47-3.75,3.35-3.75,6.19c0.01,7.83,0,15.66,0,23.48
	c0,7.66-0.07,15.32,0.02,22.98c0.06,5.3,1.56,6.64,7.01,6.69c5.84,0.06,7.38-1.28,7.62-6.66c0.03-0.67,0.01-1.33,0.02-2
	c0.09-12.54,0.11-12.49,11.25-18.17c2.55-1.3,3.88-1.69,3.82,2c-0.14,8.49,0.13,16.99-0.1,25.48c-0.22,8.03-3.01,10.7-11.07,10.88
	c-7.49,0.17-14.99,0.12-22.48,0.02c-8.62-0.11-11.45-2.94-11.62-11.95c-0.17-9.32-0.05-18.65-0.05-27.98
	c0-9.99-0.06-19.99,0.03-29.98c0.09-10.11,2.81-12.84,12.73-12.88c7.49-0.03,14.99-0.13,22.48,0.12c6.76,0.22,9.41,2.7,9.86,9.39
	c0.38,5.64,0.04,11.32,0.23,16.98c0.1,2.77-1.64,3.81-3.62,4.76c-3.56,1.71-7.62,6.22-10.34,4.77
	C936.73,352.22,938.97,346.53,938.6,342.66z M1174.97,476.2c-20.63,1.79-14.47,3.79-31.18-10.67c-2.33-2.01-4.38-4.34-6.27-6.92
	c6.67,2.21,12.53,5.83,18.23,9.68c2.64,1.78,5.14,2.42,8.34,2.18c12.27-0.91,24.56-1.1,36.92,0.54
	C1192.59,474.15,1183.8,475.43,1174.97,476.2z"/>
<path class="st0" d="M653.27,718.28c-15.17,0-30.33-0.13-45.5,0.08c-4.38,0.06-6.07-0.6-5.23-5.66c1.81-10.84,2.9-21.8,4.18-32.72
	c2.2-18.83-9.4-36.03-27.62-41.07c-18.67-5.16-37.35,3.44-45.16,21.07c-4.72,10.66-9.13,21.46-13.49,32.27
	c-1.23,3.05-2.4,3.7-5.43,1.94c-27.38-15.88-54.83-31.64-82.32-47.34c-2.82-1.61-3.33-2.72-1.14-5.49
	c6.93-8.74,13.55-17.73,20.28-26.63c12.23-16.18,10.9-37.02-3.24-50.89c-14.16-13.88-34.92-14.8-50.96-2.38
	c-8.69,6.73-17.56,13.23-26.22,20.01c-2.41,1.89-3.59,1.99-5.24-0.89c-15.86-27.58-31.83-55.1-47.86-82.58
	c-1.6-2.74-1.21-3.89,1.75-5.08c9.89-3.99,19.61-8.38,29.49-12.37c9.67-3.9,17.26-10.05,21.75-19.55c1.24-2.62,2.93-3.12,5.49-3.11
	c32,0.06,64,0.08,96-0.03c3.1-0.01,4.71,1.12,6.26,3.69c17.11,28.49,39.55,51.87,67.86,69.34c37.61,23.21,78.49,33.28,122.66,29.61
	c48.58-4.04,90.12-23.49,125.09-57.2c12.53-12.09,23.11-25.8,32.03-40.75c1.67-2.79,3.53-3.79,6.77-3.79
	c28.33,0,56.66-0.15,84.99-0.33c3.31-0.02,6.13-0.31,6.31,4.49c0.13,3.34,3.32,4.67,6.17,5.86c18.14,7.56,36.23,15.25,54.42,22.69
	c3.6,1.47,4.49,2.71,2.34,6.41c-15.76,27.06-31.37,54.21-46.86,81.42c-1.82,3.2-3.01,3.32-5.83,1.1
	c-8.63-6.81-17.51-13.3-26.27-19.94c-16.37-12.39-36.96-11.05-51.27,3.36c-13.58,13.67-14.5,34.56-2.25,50.59
	c6.67,8.73,13.23,17.56,20.02,26.2c2.02,2.57,2.09,3.82-0.99,5.58c-27.31,15.67-54.57,31.43-81.74,47.34
	c-3.41,2-4.67,1.42-6.07-2.11c-3.91-9.91-8.17-19.69-12.31-29.5c-8.11-19.18-26.67-28.67-45.8-23.44
	c-19.3,5.28-30.44,22.67-27.76,43.28c1.38,10.57,2.62,21.16,4.16,31.71c0.5,3.45-0.2,4.73-3.95,4.68
	c-15.83-0.17-31.66-0.07-47.49-0.07C653.27,718.16,653.27,718.22,653.27,718.28z"/>
<path class="st0" d="M652.81,0.09c15.17,0,30.33,0.13,45.5-0.08c4.36-0.06,6.08,0.56,5.23,5.64c-1.8,10.67-2.83,21.47-4.13,32.22
	c-2.33,19.19,9.15,36.48,27.56,41.58c18.86,5.22,37.56-3.58,45.36-21.52c4.58-10.54,8.98-21.16,13.29-31.81
	c1.22-3,2.3-3.73,5.41-1.93c27.38,15.89,54.83,31.64,82.32,47.32c2.82,1.61,3.37,2.71,1.17,5.49c-6.93,8.74-13.51,17.76-20.29,26.62
	c-12.07,15.78-10.9,36.79,2.88,50.56c13.95,13.94,34.68,15.33,50.53,3.34c9.04-6.83,18.09-13.64,27-20.63
	c2.41-1.89,3.59-2,5.25,0.89c15.93,27.73,31.95,55.41,48.09,83.03c2.01,3.44-0.2,3.85-2.42,4.79c-17.65,7.43-35.29,14.9-52.95,22.32
	c-4.39,1.85-8.63,3.54-8.73,9.54c-0.04,2.82-2.84,1.63-4.39,1.63c-25.5,0.08-51.01-0.45-76.49,0.3
	c-10.01,0.3-15.58-2.55-21.47-11.16c-42.86-62.59-102.79-93.41-178.6-90.75c-49.28,1.73-92.12,20.83-128.29,54.54
	c-14.12,13.16-25.99,28.12-35.77,44.72c-1.66,2.83-3.53,3.77-6.75,3.76c-31.67-0.11-63.33-0.11-95-0.01
	c-3.33,0.01-5.44-0.72-7.07-3.98c-4.12-8.25-11-13.65-19.42-17.17c-10.14-4.24-20.23-8.61-30.46-12.63
	c-3.43-1.35-3.79-2.63-1.97-5.76c15.79-27.23,31.48-54.52,47.05-81.88c1.81-3.19,3-3.35,5.82-1.12
	c8.63,6.81,17.53,13.27,26.27,19.94c16.11,12.3,36.68,11.13,50.91-2.97c13.8-13.66,15.03-34.66,2.95-50.55
	c-6.65-8.75-13.17-17.62-20.05-26.19c-2.44-3.03-2.2-4.32,1.15-6.24c27.31-15.66,54.56-31.45,81.75-47.34
	c3.04-1.78,4.14-1.14,5.37,1.9c4.46,10.95,8.87,21.93,13.83,32.66c7.81,16.92,25.54,25.27,43.57,20.98
	c17.54-4.17,29.94-20.16,29.2-38.1c-0.23-5.64-1.22-11.26-1.92-16.88c-0.82-6.61-1.51-13.25-2.63-19.81
	c-0.66-3.85,0.08-5.34,4.36-5.19c7.82,0.28,15.66-0.04,23.49-0.07C637.15,0.06,644.98,0.09,652.81,0.09z"/>
<path class="st0" d="M717.39,336.74c1.63,11.29,3.28,22.58,4.88,33.87c0.24,1.68-0.74,2.4-2.37,2.38c-1.83-0.02-3.66-0.09-5.48,0.04
	c-2.8,0.19-3.37-1.09-2.98-3.64c1.68-10.83,3.23-21.68,4.83-32.52C716.63,336.83,717.01,336.79,717.39,336.74z"/>
<rect x="208.76" y="294.88" class="st0" width="40.16" height="55.14"/>
<rect x="1039.02" y="294.88" class="st0" width="55.25" height="53.47"/>
<rect x="1155.55" y="467.46" class="st0" width="48.48" height="11.88"/>
<rect x="1136.66" y="456.53" class="st0" width="18.3" height="13.43"/>
<rect x="1145.8" y="462.18" class="st0" width="13.66" height="18.35"/>
<rect x="100.5" y="461.4" class="st0" width="49.66" height="16.99"/>
<rect x="149.09" y="456.29" class="st0" width="10.34" height="24.95"/>
<rect x="155.98" y="454.86" class="st0" width="15.45" height="15.45"/>
<g>
</g>
<g>
</g>
<g>
</g>
<g>
</g>
<g>
</g>
<g>
</g>
</svg>
